<?xml version="1.0" encoding="UTF-8"?>
<svg xmlns="http://www.w3.org/2000/svg" viewBox="0 0 256 256">
  <defs>
    <linearGradient id="bg" x1="0" y1="0" x2="0" y2="1">
      <stop offset="0" stop-color="#1f6feb"/>
      <stop offset="1" stop-color="#0b3d91"/>
    </linearGradient>
  </defs>

  <rect x="8" y="8" width="240" height="240" rx="48" fill="url(#bg)"/>

  <g fill="none" stroke="#7ee7ff" stroke-linecap="round" stroke-width="8">
    <path d="M150 70 q22 22 0 44"/>
    <path d="M170 50 q42 42 0 84"/>
    <path d="M190 30 q62 62 0 124"/>
  </g>

  <g>
    <rect x="64" y="92" width="76" height="120" rx="12" fill="#11161d" stroke="#e6edf3" stroke-width="4"/>
    <rect x="92" y="44" width="10" height="56" rx="5" fill="#e6edf3"/>
    <circle cx="97" cy="42" r="7" fill="#e6edf3"/>
    <rect x="76" y="106" width="52" height="32" rx="4" fill="#7ee7ff"/>
    <g fill="#3a4250">
      <circle cx="86" cy="156" r="3"/><circle cx="102" cy="156" r="3"/><circle cx="118" cy="156" r="3"/>
      <circle cx="86" cy="170" r="3"/><circle cx="102" cy="170" r="3"/><circle cx="118" cy="170" r="3"/>
      <circle cx="86" cy="184" r="3"/><circle cx="102" cy="184" r="3"/><circle cx="118" cy="184" r="3"/>
    </g>
    <rect x="56" y="120" width="10" height="36" rx="3" fill="#3a4250"/>
  </g>

  <text x="128" y="240" text-anchor="middle"
        font-family="Helvetica, Arial, sans-serif" font-weight="700"
        font-size="28" fill="#e6edf3" letter-spacing="4">VUU</text>
</svg>
